<?xml version="1.0" standalone="no"?>
<!DOCTYPE svg PUBLIC "-//W3C//DTD SVG 20010904//EN"
 "http://www.w3.org/TR/2001/REC-SVG-20010904/DTD/svg10.dtd">
<svg version="1.0" xmlns="http://www.w3.org/2000/svg"
 width="700.000000pt" height="700.000000pt" viewBox="0 0 700.000000 700.000000"
 preserveAspectRatio="xMidYMid meet">
<metadata>
Created by potrace 1.14, written by Peter Selinger 2001-2017
</metadata>
<g transform="translate(0.000000,700.000000) scale(0.100000,-0.100000)"
fill="#000000" stroke="none">
<path d="M1092 6907 c-44 -46 -155 -311 -192 -455 -19 -75 -22 -112 -22 -339
0 -122 -4 -241 -9 -265 -5 -24 -11 -54 -13 -67 -19 -86 -26 -416 -12 -556 9
-95 18 -169 22 -176 6 -10 16 -274 17 -459 l2 -175 34 -60 c18 -33 47 -78 64
-100 48 -63 185 -195 267 -256 168 -124 249 -163 745 -350 116 -44 219 -84
230 -89 11 -5 65 -28 120 -51 239 -99 326 -154 443 -277 58 -61 71 -81 66 -97
-4 -11 -8 -46 -9 -78 -1 -31 -6 -62 -12 -68 -15 -15 -47 3 -183 107 -140 106
-201 130 -467 179 -163 30 -272 38 -314 23 -35 -12 -59 -43 -59 -78 0 -36 49
-134 118 -237 32 -48 72 -113 89 -143 76 -141 137 -208 236 -261 34 -18 64
-34 67 -35 3 0 12 -3 20 -7 27 -10 115 -36 145 -43 44 -9 231 -12 298 -4 71 8
86 -1 92 -55 2 -22 7 -58 10 -80 3 -22 7 -60 11 -85 3 -25 9 -63 13 -85 8 -44
0 -75 -118 -480 -110 -373 -188 -671 -198 -753 -15 -128 151 -447 325 -622
181 -183 374 -264 607 -256 244 8 445 116 627 336 105 127 208 326 247 476 16
60 -1 137 -139 624 -33 118 -62 222 -65 231 -2 9 -27 95 -56 190 -59 196 -62
234 -33 382 2 10 6 45 9 76 12 112 9 110 115 100 263 -24 490 39 626 175 33
34 67 73 75 87 8 15 27 50 43 80 15 29 57 96 92 150 158 240 158 316 1 324
-115 6 -481 -68 -587 -119 -30 -15 -103 -64 -162 -110 -147 -115 -170 -118
-167 -25 1 30 -2 65 -6 79 -6 22 3 36 61 98 111 120 229 193 474 292 58 23
114 46 125 50 47 20 181 72 330 128 251 95 396 159 490 215 150 91 346 270
419 381 71 108 75 127 76 377 0 123 2 245 4 271 5 61 16 150 21 177 9 46 18
222 18 346 0 160 -12 304 -33 382 -4 18 -8 137 -8 265 0 238 -2 260 -28 361
-30 115 -136 376 -156 385 -5 2 -8 9 -8 16 0 7 -11 23 -26 36 -21 21 -27 22
-34 10 -9 -14 -11 -27 -13 -97 -1 -44 13 -141 33 -228 10 -44 21 -100 25 -125
3 -25 8 -52 10 -60 2 -8 7 -44 10 -80 4 -36 8 -72 10 -80 1 -8 6 -46 10 -83 3
-37 8 -78 11 -90 10 -52 16 -344 7 -350 -18 -11 -52 72 -211 503 -96 260 -138
356 -165 378 -47 39 -20 -102 114 -608 57 -213 74 -337 74 -550 0 -228 -17
-309 -79 -369 -61 -60 -152 -39 -207 47 -28 44 -62 139 -73 208 -32 184 -65
285 -144 434 -71 135 -133 206 -170 193 -21 -8 -13 -54 44 -254 78 -274 84
-408 19 -469 -83 -78 -216 -25 -622 247 -134 90 -250 163 -257 163 -25 0 -25
-13 -3 -54 92 -171 308 -375 598 -565 130 -85 121 -80 279 -171 107 -62 279
-149 377 -191 56 -24 69 -68 47 -154 -17 -66 -41 -113 -84 -165 -48 -59 -102
-93 -221 -140 -188 -74 -445 -201 -760 -375 -96 -53 -186 -99 -200 -102 -43
-8 -85 21 -113 79 -14 29 -27 64 -30 78 -3 14 -7 36 -10 50 -7 32 -14 86 -22
180 -3 41 -22 125 -41 185 -19 61 -46 151 -59 200 -28 101 -46 129 -62 98 -14
-25 -16 -98 -7 -193 13 -125 6 -322 -15 -441 -5 -30 -12 -72 -15 -94 -4 -22
-6 -113 -6 -203 1 -193 -2 -205 -90 -287 -45 -41 -67 -55 -89 -55 -20 0 -38
-9 -53 -26 -38 -45 -74 -54 -222 -54 -144 0 -157 3 -213 51 -18 16 -44 29 -57
29 -30 0 -136 96 -159 144 -13 27 -16 68 -15 207 0 96 -4 194 -10 219 -5 25
-12 72 -16 105 -3 33 -8 73 -11 88 -8 39 -7 314 1 327 11 18 7 158 -6 181
l-11 22 -17 -22 c-9 -12 -22 -47 -29 -79 -8 -31 -31 -109 -52 -172 -38 -114
-47 -153 -55 -240 -22 -234 -54 -334 -118 -367 -39 -20 -72 -11 -184 53 -53
30 -97 54 -98 54 -1 0 -54 29 -118 64 -214 118 -515 261 -646 307 -139 49
-240 155 -274 289 -19 73 -6 150 25 150 6 0 91 40 188 89 354 177 658 379 864
572 86 81 191 210 225 277 19 37 20 43 6 48 -19 8 -79 -28 -286 -172 -85 -58
-161 -109 -169 -112 -8 -3 -34 -19 -56 -34 -67 -45 -205 -106 -262 -116 -69
-12 -109 7 -140 68 -22 41 -23 54 -18 140 6 100 16 147 72 327 40 128 52 207
35 218 -11 6 -54 -16 -76 -40 -76 -83 -194 -339 -219 -475 -33 -180 -42 -214
-78 -287 -35 -71 -53 -90 -102 -107 -95 -33 -168 36 -192 180 -16 93 -8 482
10 513 2 3 7 26 10 51 3 25 19 97 35 160 16 63 52 204 80 312 54 213 67 281
63 331 -7 69 -68 -62 -218 -463 -128 -344 -152 -401 -173 -408 -12 -4 -13 19
-7 144 6 150 8 178 21 295 11 100 54 377 70 449 26 116 34 231 21 285 -8 31
-16 31 -44 2z"/>
</g>
</svg>
